<mxfile host="app.diagrams.net" modified="2022-11-18T08:06:20.407Z" agent="5.0 (Macintosh; Intel Mac OS X 10_15_7) AppleWebKit/537.36 (KHTML, like Gecko) Chrome/107.0.0.0 Safari/537.36" etag="HnAzgKT5qvBlHips-CEX" version="20.5.3" type="github">
  <diagram id="ESfHzFhIp8_Np-J2azcc" name="Page-1">
    <mxGraphModel dx="2066" dy="1153" grid="1" gridSize="10" guides="1" tooltips="1" connect="1" arrows="1" fold="1" page="1" pageScale="1" pageWidth="850" pageHeight="1100" math="0" shadow="0">
      <root>
        <mxCell id="0" />
        <mxCell id="1" parent="0" />
        <mxCell id="uScZJCT3d9wsoi-lr6Ei-2" value="Pipeline" style="shape=process;whiteSpace=wrap;html=1;backgroundOutline=1;fontSize=18;" vertex="1" parent="1">
          <mxGeometry x="345" y="180" width="160" height="80" as="geometry" />
        </mxCell>
        <mxCell id="uScZJCT3d9wsoi-lr6Ei-3" value="Pipeline" style="shape=process;whiteSpace=wrap;html=1;backgroundOutline=1;fontSize=18;" vertex="1" parent="1">
          <mxGeometry x="110" y="120" width="160" height="80" as="geometry" />
        </mxCell>
      </root>
    </mxGraphModel>
  </diagram>
</mxfile>
